<?xml version="1.0" standalone="no"?>
<!DOCTYPE svg PUBLIC "-//W3C//DTD SVG 20010904//EN"
 "http://www.w3.org/TR/2001/REC-SVG-20010904/DTD/svg10.dtd">
<svg version="1.0" xmlns="http://www.w3.org/2000/svg"
 width="842.000000pt" height="595.000000pt" viewBox="0 0 842.000000 595.000000"
 preserveAspectRatio="xMidYMid meet">

<g transform="translate(0.000000,595.000000) scale(0.100000,-0.100000)"
fill="#000000" stroke="none">
<path d="M3977 3209 c7 -7 15 -10 18 -7 3 3 -2 9 -12 12 -14 6 -15 5 -6 -5z"/>
<path d="M4370 3176 c-7 -14 -10 -31 -7 -39 4 -10 -1 -13 -19 -9 -13 2 -21 8
-18 13 3 5 10 7 15 4 5 -4 9 -1 9 5 0 8 -7 9 -17 5 -10 -4 -101 -9 -201 -12
-143 -3 -182 -1 -176 8 4 8 3 9 -5 5 -6 -4 -8 -12 -5 -18 4 -6 1 -8 -7 -6 -8
3 -13 11 -11 17 1 7 -2 10 -8 6 -5 -3 -10 -16 -11 -28 -1 -20 -2 -20 -9 3 -7
21 -8 22 -9 5 -1 -16 -3 -17 -10 -5 -6 8 -7 18 -4 24 3 5 1 6 -5 2 -8 -5 -12
-52 -12 -147 l0 -139 60 0 60 0 0 118 c0 65 2 121 4 123 2 2 61 3 130 1 l126
-3 0 -150 0 -149 65 0 66 0 -2 146 -1 146 98 2 c96 1 98 2 105 26 l7 25 1 -27
c1 -27 31 -42 31 -16 0 6 3 9 6 5 3 -3 6 -60 5 -126 l-2 -121 61 0 60 0 0 130
0 130 -49 0 c-30 0 -52 -5 -55 -12 -3 -7 -3 -2 0 12 4 14 3 22 -1 18 -5 -4
-15 -2 -23 5 -13 9 -14 9 -8 0 4 -7 2 -21 -4 -30 -9 -15 -11 -15 -7 -2 9 27
-9 34 -65 29 l-53 -4 45 -7 c33 -5 22 -6 -43 -5 -48 0 -87 -2 -87 -6 0 -4 39
-9 88 -11 l87 -3 -88 -2 c-86 -2 -88 -2 -97 24 -7 19 -7 31 1 40 7 8 10 17 7
19 -3 3 -10 -6 -18 -19z m-395 -56 c-3 -5 -14 -10 -23 -10 -15 0 -15 2 -2 10
20 13 33 13 25 0z"/>
<path d="M3978 3173 c7 -3 16 -2 19 1 4 3 -2 6 -13 5 -11 0 -14 -3 -6 -6z"/>
<path d="M3066 2549 c3 -15 1 -30 -5 -33 -7 -5 -8 0 -4 11 4 12 3 15 -4 8 -6
-5 -25 -48 -43 -95 -18 -47 -35 -91 -37 -98 -4 -10 5 -12 37 -10 40 3 44 6 55
38 l12 35 78 0 78 0 12 -35 c11 -33 15 -35 58 -38 l47 -3 -19 48 c-56 142 -74
183 -78 183 -2 0 -2 -8 2 -19 3 -11 0 -21 -9 -24 -10 -4 -12 0 -9 16 5 22 5
22 -10 2 -9 -11 -17 -15 -17 -7 0 6 -5 12 -11 12 -7 0 -8 -7 -4 -17 22 -53 21
-53 -45 -53 -49 0 -60 3 -53 13 14 17 23 57 13 57 -5 0 -10 -6 -13 -12 -2 -8
-11 0 -20 17 -17 29 -17 29 -11 4z"/>
<path d="M2760 2556 c0 -2 9 -6 20 -9 11 -3 18 -1 14 4 -5 9 -34 13 -34 5z"/>
<path d="M2376 2541 c-4 -7 -16 -9 -27 -6 -15 5 -18 3 -12 -12 6 -17 5 -17
-14 0 -11 9 -23 17 -26 17 -4 0 -7 -47 -7 -105 l0 -105 35 0 35 0 0 78 c0 43
2 81 4 83 2 2 43 3 90 1 l86 -3 0 -80 0 -79 35 0 35 0 -1 93 c0 50 -4 101 -8
111 -7 19 -8 19 -15 1 -5 -14 -9 -16 -18 -7 -17 17 -28 15 -29 -5 0 -14 -2
-13 -9 5 -5 12 -12 22 -16 22 -3 0 -4 -7 -1 -14 4 -10 1 -13 -9 -9 -7 3 -14 8
-14 12 0 3 -21 4 -47 1 l-48 -4 45 -7 45 -6 -42 -1 c-30 -2 -45 3 -51 14 -7
12 -11 13 -16 5z"/>
<path d="M2920 2535 c-1 -11 -4 -15 -7 -7 -2 6 -12 12 -20 12 -13 0 -14 -2 -2
-17 12 -16 12 -16 -1 -6 -18 13 -140 22 -140 9 0 -5 -7 -3 -15 4 -9 7 -19 10
-23 6 -4 -4 -9 -52 -10 -107 l-4 -99 116 0 116 0 0 30 0 30 -75 0 -75 0 0 50
0 50 70 0 c74 0 87 8 77 47 -4 16 -5 16 -7 -2z"/>
<path d="M3407 2521 c-4 -18 -7 -69 -7 -112 l0 -79 105 0 105 0 0 30 c0 29 0
29 -67 32 l-68 3 -3 72 c-3 64 -5 72 -22 70 -11 -1 -20 -8 -21 -17 -1 -8 -4
-4 -8 10 -7 24 -7 24 -14 -9z"/>
<path d="M3970 2538 c0 -11 -6 -15 -20 -11 -19 5 -20 0 -20 -96 l0 -101 35 0
34 0 3 81 3 81 85 0 85 0 3 -81 3 -81 34 0 35 0 0 94 c0 103 -6 137 -22 114
-7 -10 -11 -10 -15 -1 -3 10 -8 9 -20 -3 -22 -22 -173 -17 -165 6 4 11 0 11
-15 -3 -21 -18 -22 -18 -32 0 -9 16 -10 16 -11 1z m240 -22 c0 -2 -7 -7 -16
-10 -8 -3 -12 -2 -9 4 6 10 25 14 25 6z"/>
<path d="M3696 2524 c-3 -9 -6 -56 -6 -105 l0 -89 40 0 40 0 0 101 c0 64 -4
98 -10 94 -5 -3 -10 0 -10 7 0 10 -3 9 -11 -2 -8 -11 -12 -12 -16 -2 -7 17
-20 15 -27 -4z"/>
<path d="M4098 2533 c12 -2 32 -2 45 0 12 2 2 4 -23 4 -25 0 -35 -2 -22 -4z"/>
<path d="M4440 2511 c0 -7 -6 -11 -15 -7 -8 3 -15 0 -15 -7 0 -8 -4 -6 -10 3
-7 12 -10 12 -10 1 0 -7 -6 -11 -15 -7 -13 4 -15 -8 -15 -78 0 -90 3 -95 52
-88 l29 4 -1 72 c-1 39 -1 76 -1 81 1 6 32 10 73 9 l73 -1 -65 4 c-35 2 -68 9
-72 16 -6 9 -8 8 -8 -2z"/>
<path d="M5545 2510 c-3 -5 -1 -10 4 -10 6 0 11 5 11 10 0 6 -2 10 -4 10 -3 0
-8 -4 -11 -10z"/>
<path d="M6005 2455 c78 -113 101 -132 163 -126 9 1 12 27 12 94 0 50 -4 88
-8 82 -8 -12 -32 -13 -50 -1 -7 4 -12 4 -11 -1 1 -4 1 -24 0 -43 -2 -31 -4
-33 -14 -16 -7 10 -21 29 -31 43 -18 23 -21 24 -32 9 -10 -15 -12 -15 -18 -1
-4 11 -2 14 6 9 7 -4 8 -3 4 4 -5 8 -13 9 -25 2 -12 -6 -22 -5 -31 3 -7 7 9
-19 35 -58z"/>
<path d="M4611 2423 l-1 -93 40 0 40 0 0 93 c0 63 -3 87 -10 77 -6 -10 -10
-11 -10 -2 0 6 -9 12 -21 12 -11 0 -17 -4 -14 -10 3 -5 2 -10 -4 -10 -5 0 -12
6 -14 13 -3 6 -6 -30 -6 -80z"/>
<path d="M4772 2431 c-43 -106 -43 -105 -2 -104 19 0 38 1 42 2 4 1 12 19 18
41 l11 40 75 0 76 0 15 -40 c9 -22 21 -40 27 -41 61 -4 76 -3 76 8 0 27 -68
168 -81 167 -22 -1 -58 -18 -58 -28 -1 -5 -23 -9 -51 -9 -27 0 -49 4 -47 8 2
7 -32 24 -59 30 -6 2 -25 -32 -42 -74z"/>
<path d="M5212 2421 l32 -91 42 0 42 0 26 77 c23 69 24 79 11 92 -9 9 -15 11
-15 4 0 -6 -8 -10 -17 -9 -11 1 -22 -13 -33 -43 -16 -42 -17 -43 -24 -18 -3
14 -11 39 -17 54 -8 22 -12 24 -20 13 -8 -13 -10 -13 -19 0 -8 12 -10 12 -10
1 0 -11 -3 -11 -14 -2 -10 8 -4 -20 16 -78z"/>
<path d="M5600 2507 c9 -8 130 -17 130 -9 0 4 -30 8 -67 10 -38 2 -66 2 -63
-1z"/>
<path d="M5821 2424 l-1 -92 30 -4 c17 -3 32 -2 35 0 3 3 5 43 5 88 l0 84 -30
-4 c-16 -2 -31 2 -34 8 -2 6 -5 -30 -5 -80z"/>
<path d="M5515 2491 c-3 -2 -5 -40 -5 -83 l0 -78 100 0 c55 0 103 -1 108 -2 4
-2 8 12 10 30 l3 32 -70 0 -71 0 -1 48 c-1 26 -1 49 -1 53 1 6 -67 7 -73 0z"/>
</g>
</svg>
